<svg version="1.1" id="Layer_1" xmlns="http://www.w3.org/2000/svg" xmlns:xlink="http://www.w3.org/1999/xlink" x="0px" y="0px"
	 width="100%" viewBox="0 0 337 252" enable-background="new 0 0 337 252" xml:space="preserve">
<path fill="#0074D9" opacity="1.000000" stroke="none" 
	d="
M231.000000,253.000000 
	C154.032471,253.000000 77.564941,253.000000 1.048705,253.000000 
	C1.048705,169.068146 1.048705,85.136261 1.048705,1.102185 
	C113.217445,1.102185 225.435013,1.102185 337.826294,1.102185 
	C337.826294,84.999702 337.826294,168.999832 337.826294,253.000000 
	C302.469727,253.000000 266.984863,253.000000 231.000000,253.000000 
M154.472916,186.030670 
	C157.905136,186.030670 161.337357,186.030670 164.598999,186.030670 
	C164.598999,182.609253 164.598999,179.885010 164.598999,177.243835 
	C141.609879,177.243835 119.006424,177.243835 95.944633,177.243835 
	C95.944633,184.208267 95.944633,190.936127 95.944633,197.827759 
	C80.969421,182.642700 66.313179,167.781082 52.193485,153.463531 
	C66.253014,139.230743 80.926178,124.376770 95.968681,109.148895 
	C95.968681,116.117630 95.968681,122.840179 95.968681,130.155518 
	C143.809814,130.155518 191.176682,130.155518 238.995117,130.155518 
	C238.995117,141.480698 238.995117,152.200317 238.995117,163.291611 
	C261.239105,140.831726 283.062775,118.796242 304.049011,97.606316 
	C282.790558,76.057068 261.084686,54.054276 238.808228,31.473122 
	C238.808228,42.867336 238.808228,53.731026 238.808228,65.002350 
	C216.287003,65.002350 194.362289,65.002350 172.247711,65.002350 
	C172.247711,68.159119 172.247711,70.884903 172.247711,73.688538 
	C197.562469,73.688538 222.619476,73.688538 248.287399,73.688538 
	C248.287399,66.736488 248.287399,60.090359 248.287399,53.467289 
	C263.251312,68.492630 277.896027,83.197433 291.658783,97.016701 
	C277.369476,111.584900 262.862000,126.375526 247.845840,141.684769 
	C247.845840,134.568619 247.845840,127.865852 247.845840,120.851273 
	C199.978439,120.851273 152.707199,120.851273 104.947327,120.851273 
	C104.947327,109.636818 104.947327,98.760612 104.947327,87.481094 
	C82.645523,110.029716 60.792484,132.124603 39.939045,153.208832 
	C61.115257,174.617722 83.026878,196.770111 105.157295,219.143692 
	C105.157295,208.211273 105.157295,197.295288 105.157295,186.030670 
	C121.545563,186.030670 137.512329,186.030670 154.472916,186.030670 
z"/>
<path fill="#FAFCFD" opacity="1.000000" stroke="none" 
	d="
M153.976013,186.030670 
	C137.512329,186.030670 121.545563,186.030670 105.157295,186.030670 
	C105.157295,197.295288 105.157295,208.211273 105.157295,219.143692 
	C83.026878,196.770111 61.115257,174.617722 39.939045,153.208832 
	C60.792484,132.124603 82.645523,110.029716 104.947327,87.481094 
	C104.947327,98.760612 104.947327,109.636818 104.947327,120.851273 
	C152.707199,120.851273 199.978439,120.851273 247.845840,120.851273 
	C247.845840,127.865852 247.845840,134.568619 247.845840,141.684769 
	C262.862000,126.375526 277.369476,111.584900 291.658783,97.016701 
	C277.896027,83.197433 263.251312,68.492630 248.287399,53.467289 
	C248.287399,60.090359 248.287399,66.736488 248.287399,73.688538 
	C222.619476,73.688538 197.562469,73.688538 172.247711,73.688538 
	C172.247711,70.884903 172.247711,68.159119 172.247711,65.002350 
	C194.362289,65.002350 216.287003,65.002350 238.808228,65.002350 
	C238.808228,53.731026 238.808228,42.867336 238.808228,31.473122 
	C261.084686,54.054276 282.790558,76.057068 304.049011,97.606316 
	C283.062775,118.796242 261.239105,140.831726 238.995117,163.291611 
	C238.995117,152.200317 238.995117,141.480698 238.995117,130.155518 
	C191.176682,130.155518 143.809814,130.155518 95.968681,130.155518 
	C95.968681,122.840179 95.968681,116.117630 95.968681,109.148895 
	C80.926178,124.376770 66.253014,139.230743 52.193485,153.463531 
	C66.313179,167.781082 80.969421,182.642700 95.944633,197.827759 
	C95.944633,190.936127 95.944633,184.208267 95.944633,177.243835 
	C119.006424,177.243835 141.609879,177.243835 164.598999,177.243835 
	C164.598999,179.885010 164.598999,182.609253 164.598999,186.030670 
	C161.337357,186.030670 157.905136,186.030670 153.976013,186.030670 
z"/>
</svg>